<svg viewBox="0 0 385 385" xmlns="http://www.w3.org/2000/svg" aria-hidden="true" xml:space="preserve" style="fill-rule:evenodd;clip-rule:evenodd;stroke-linejoin:round;stroke-miterlimit:2"><path d="M342.598 42.402C315.254 15.058 278.899-.001 240.229 0h-.002c-38.666 0-75.025 15.06-102.368 42.402-27.343 27.344-42.402 63.7-42.402 102.37 0 26.388 7.018 51.696 20.161 73.801L10.252 323.938C3.642 330.55 0 339.34 0 348.69s3.641 18.14 10.252 24.75l1.307 1.307C18.17 381.359 26.96 385 36.311 385c9.351 0 18.14-3.641 24.751-10.252l105.365-105.366c22.104 13.144 47.413 20.161 73.801 20.161 38.67 0 75.026-15.059 102.37-42.402C369.942 219.798 385 183.442 385 144.772s-15.057-75.025-42.402-102.37ZM43.384 357.07A9.94 9.94 0 0 1 36.31 360a9.944 9.944 0 0 1-7.073-2.93l-1.308-1.309a9.937 9.937 0 0 1-2.93-7.071 9.94 9.94 0 0 1 2.93-7.074l102.489-102.488a147.16 147.16 0 0 0 15.453 15.453L43.384 357.07ZM324.92 229.463c-22.622 22.622-52.7 35.08-84.691 35.08-31.992 0-62.069-12.458-84.69-35.08-22.622-22.622-35.081-52.699-35.08-84.69 0-31.993 12.458-62.07 35.08-84.692 22.622-22.622 52.698-35.081 84.69-35.08 31.993 0 62.07 12.458 84.692 35.08 22.622 22.622 35.081 52.7 35.08 84.692-.001 31.991-12.459 62.068-35.081 84.69Z" style="fill-rule:nonzero" transform="matrix(-1 0 0 1 385 0)"/></svg>