<?xml version="1.0" encoding="UTF-8" standalone="no"?>
<!DOCTYPE svg PUBLIC "-//W3C//DTD SVG 1.1//EN" "http://www.w3.org/Graphics/SVG/1.1/DTD/svg11.dtd">
<svg width="100%" height="100%" viewBox="0 0 100 100" version="1.1" xmlns="http://www.w3.org/2000/svg" xmlns:xlink="http://www.w3.org/1999/xlink" xml:space="preserve" xmlns:serif="http://www.serif.com/" style="fill-rule:evenodd;clip-rule:evenodd;stroke-linecap:round;stroke-linejoin:round;stroke-miterlimit:1.5;">
    <g transform="matrix(0.203494,1.03082,-1.03082,0.203494,63.9119,0.926155)">
        <path d="M29.433,15.835C20.551,15.835 13.351,23.036 13.351,31.918C13.351,40.794 20.557,48 29.433,48C33.601,48 37.607,46.382 40.605,43.487" style="fill:none;stroke:white;stroke-width:5.23px;"/>
    </g>
    <g transform="matrix(1.05071,0,0,1.05071,3.84087,5.45421)">
        <path d="M13.106,45.474L8.411,49.447" style="fill:none;stroke:white;stroke-width:5.23px;"/>
    </g>
    <g transform="matrix(0.0941673,1.04648,-1.04648,0.0941673,64.6789,2.81838)">
        <path d="M13.106,45.474L8.411,49.447" style="fill:none;stroke:white;stroke-width:5.23px;"/>
    </g>
    <g transform="matrix(0.750839,0.735009,-0.735009,0.750839,35.605,-6.6627)">
        <path d="M13.106,45.474L8.411,49.447" style="fill:none;stroke:white;stroke-width:5.23px;"/>
    </g>
    <g transform="matrix(-0.662522,0.815514,-0.815514,-0.662522,81.3088,32.8105)">
        <path d="M13.106,45.474L8.411,49.447" style="fill:none;stroke:white;stroke-width:5.23px;"/>
    </g>
    <g transform="matrix(-1.04929,0.0546652,-0.0546652,-1.04929,70.1584,66.9775)">
        <path d="M13.106,45.474L8.411,49.447" style="fill:none;stroke:white;stroke-width:5.23px;"/>
    </g>
    <g transform="matrix(-1.04929,0.0546652,-0.0546652,-1.04929,49.8781,137.45)">
        <path d="M13.106,45.474L8.411,49.447" style="fill:none;stroke:white;stroke-width:5.23px;"/>
    </g>
    <g transform="matrix(-1.04929,0.0546652,-0.0546652,-1.04929,71.6918,137.45)">
        <path d="M13.106,45.474L8.411,49.447" style="fill:none;stroke:white;stroke-width:5.23px;"/>
    </g>
    <g transform="matrix(-1.04929,0.0546652,-0.0546652,-1.04929,93.2296,137.45)">
        <path d="M13.106,45.474L8.411,49.447" style="fill:none;stroke:white;stroke-width:5.23px;"/>
    </g>
    <g transform="matrix(1.05071,0,0,1.05071,4.73042,-8.63552)">
        <path d="M74.779,80.693L27.377,80.693C20.17,80.693 15.288,75.477 17.82,69.009C20.395,62.431 31.433,62.869 31.433,62.869C31.433,62.869 28.389,55.242 34.739,51.339C40.809,47.609 46.814,54.603 46.814,54.603C46.814,54.603 50.123,39.537 64.346,42.444C75.29,44.681 74.034,59.821 74.034,59.821C74.034,59.821 86.551,60.798 86.289,71.073C86.135,77.128 81.222,80.693 74.779,80.693Z" style="fill:none;stroke:white;stroke-width:5.23px;"/>
    </g>
</svg>
