<svg viewBox="0 0 100 100" xmlns="http://www.w3.org/2000/svg" xml:space="preserve" aria-hidden="true" style="fill-rule:evenodd;clip-rule:evenodd;stroke-linecap:round;stroke-linejoin:round;stroke-miterlimit:1.5"><path d="M29.433 15.835c-8.882 0-16.082 7.201-16.082 16.083C13.351 40.794 20.557 48 29.433 48c4.168 0 8.174-1.618 11.172-4.513" style="fill:none;stroke:#fff;stroke-width:5.23px" transform="matrix(.2035 1.03082 -1.03082 .2035 63.912 .926)"/><path d="m13.106 45.474-4.695 3.973" style="fill:none;stroke:#fff;stroke-width:5.23px" transform="translate(3.84 5.454) scale(1.05071)"/><path d="m13.106 45.474-4.695 3.973" style="fill:none;stroke:#fff;stroke-width:5.23px" transform="rotate(84.858 30.798 36.79) scale(1.05071)"/><path d="m13.106 45.474-4.695 3.973" style="fill:none;stroke:#fff;stroke-width:5.23px" transform="matrix(.75084 .735 -.735 .75084 35.605 -6.663)"/><path d="m13.106 45.474-4.695 3.973" style="fill:none;stroke:#fff;stroke-width:5.23px" transform="matrix(-.66252 .81551 -.81551 -.66252 81.309 32.81)"/><path d="m13.106 45.474-4.695 3.973" style="fill:none;stroke:#fff;stroke-width:5.23px" transform="matrix(-1.04929 .05467 -.05467 -1.04929 70.158 66.978)"/><path d="m13.106 45.474-4.695 3.973" style="fill:none;stroke:#fff;stroke-width:5.23px" transform="matrix(-1.04929 .05467 -.05467 -1.04929 49.878 137.45)"/><path d="m13.106 45.474-4.695 3.973" style="fill:none;stroke:#fff;stroke-width:5.23px" transform="matrix(-1.04929 .05467 -.05467 -1.04929 71.692 137.45)"/><path d="m13.106 45.474-4.695 3.973" style="fill:none;stroke:#fff;stroke-width:5.23px" transform="matrix(-1.04929 .05467 -.05467 -1.04929 93.23 137.45)"/><path d="M74.779 80.693H27.377c-7.207 0-12.089-5.216-9.557-11.684 2.575-6.578 13.613-6.14 13.613-6.14s-3.044-7.627 3.306-11.53c6.07-3.73 12.075 3.264 12.075 3.264s3.309-15.066 17.532-12.159c10.944 2.237 9.688 17.377 9.688 17.377s12.517.977 12.255 11.252c-.154 6.055-5.067 9.62-11.51 9.62Z" style="fill:none;stroke:#fff;stroke-width:5.23px" transform="translate(4.73 -8.636) scale(1.05071)"/></svg>